<?xml version="1.0" encoding="UTF-8" standalone="no"?>
<!-- Created with Inkscape (http://www.inkscape.org/) -->

<svg
   xmlns:dc="http://purl.org/dc/elements/1.1/"
   xmlns:cc="http://creativecommons.org/ns#"
   xmlns:rdf="http://www.w3.org/1999/02/22-rdf-syntax-ns#"
   xmlns:svg="http://www.w3.org/2000/svg"
   xmlns="http://www.w3.org/2000/svg"
   xmlns:sodipodi="http://sodipodi.sourceforge.net/DTD/sodipodi-0.dtd"
   xmlns:inkscape="http://www.inkscape.org/namespaces/inkscape"
   width="250.61662mm"
   height="254.33466mm"
   viewBox="0 0 888.01166 901.18579"
   id="svg6960"
   version="1.1"
   inkscape:version="0.91 r13725"
   sodipodi:docname="WikiJournal_of_Humanities_logo (flat black).svg">
  <defs
     id="defs6962" />
  <sodipodi:namedview
     id="base"
     pagecolor="#ffffff"
     bordercolor="#666666"
     borderopacity="1.0"
     inkscape:pageopacity="0.0"
     inkscape:pageshadow="2"
     inkscape:zoom="0.49497475"
     inkscape:cx="-416.70632"
     inkscape:cy="220.18986"
     inkscape:document-units="px"
     inkscape:current-layer="layer1"
     showgrid="false"
     fit-margin-top="0"
     fit-margin-left="0"
     fit-margin-right="0"
     fit-margin-bottom="0"
     inkscape:window-width="1858"
     inkscape:window-height="1057"
     inkscape:window-x="54"
     inkscape:window-y="-8"
     inkscape:window-maximized="1" />
  <metadata
     id="metadata6965">
    <rdf:RDF>
      <cc:Work
         rdf:about="">
        <dc:format>image/svg+xml</dc:format>
        <dc:type
           rdf:resource="http://purl.org/dc/dcmitype/StillImage" />
        <dc:title></dc:title>
      </cc:Work>
    </rdf:RDF>
  </metadata>
  <g
     inkscape:label="Layer 1"
     inkscape:groupmode="layer"
     id="layer1"
     transform="translate(67.868829,-75.217337)">
    <path
       style="fill:#000000;fill-opacity:1"
       d="m -1711.6343,223.91286 c 13.3314,0.0854 26.5003,1.28903 39.5118,3.5332 1.9828,0.34199 3.962,0.70528 5.9375,1.0957 121.4266,19.10586 218.9066,112.73874 246.6953,233.94337 5.295,20.37976 8.1595,41.34862 8.1425,62.60742 0,0.007 2e-4,0.0145 0,0.0215 -0.012,2.46642 -0.077,4.91174 -0.164,7.34766 0,0.30022 0.012,0.59801 0.012,0.89844 -0.054,94.48399 -42.2861,183.17 -113.6562,241.30664 -52.2986,46.29877 -29.3943,119.99485 -49.3418,179.99219 -8.5571,2.74038 -17.2251,5.23559 -25.9961,7.46874 -8.8954,2.26487 -17.8965,4.26482 -26.9942,5.99024 -9.0976,1.72542 -18.2921,3.17561 -27.5742,4.34375 -9.282,1.16814 -18.6509,2.05348 -28.0996,2.64648 -9.4486,0.593 -18.9768,0.89453 -28.5742,0.89453 -0.2394,0 -0.4775,-0.005 -0.7168,-0.006 -0.2386,10e-4 -0.4762,0.006 -0.7149,0.006 -0.135,0 -0.2692,-0.004 -0.4043,-0.004 -0.135,1.2e-4 -0.2692,0.004 -0.4043,0.004 -0.2387,0 -0.4762,-0.005 -0.7148,-0.006 -0.2393,3.7e-4 -0.4774,0.006 -0.7168,0.006 -9.5974,0 -19.1256,-0.30153 -28.5742,-0.89453 -9.4487,-0.593 -18.8176,-1.47834 -28.0996,-2.64648 -9.2821,-1.16814 -18.4766,-2.61833 -27.5742,-4.34375 -9.0977,-1.72542 -18.0988,-3.72537 -26.9942,-5.99024 -8.771,-2.23315 -17.439,-4.72836 -25.9961,-7.46874 -19.9475,-59.99734 2.9568,-133.69342 -49.3418,-179.99219 -71.3701,-58.13664 -113.6023,-146.82265 -113.6562,-241.30664 0,-0.30043 0.011,-0.59822 0.012,-0.89844 -0.087,-2.43592 -0.1516,-4.88124 -0.1641,-7.34766 -10e-5,-0.007 0,-0.0143 0,-0.0215 -0.017,-21.2588 2.8476,-42.22766 8.1426,-62.60742 27.7881,-121.20463 125.2681,-214.83751 246.6947,-233.94337 1.9755,-0.39042 3.9547,-0.75371 5.9375,-1.0957 13.0115,-2.24417 26.1804,-3.44775 39.5117,-3.5332 0.6449,-0.004 1.2919,0.005 1.9375,0.006 0.6456,-0.001 1.2926,-0.01 1.9375,-0.006 z"
       id="path4226"
       inkscape:connector-curvature="0" />
    <path
       style="opacity:1;fill:#000000;fill-opacity:1;stroke:none;stroke-width:10;stroke-linecap:round;stroke-linejoin:round;stroke-miterlimit:4;stroke-dasharray:none;stroke-opacity:1"
       d="m -1686.3556,75.686297 -6.7793,99.775393 c -7.4189,-0.47425 -12.8982,-0.72067 -20.4356,-0.72461 -7.538,0.004 -13.018,0.25032 -20.4375,0.72461 l -6.7793,-99.775393 c 19.4627,-1.27795 35.081,-1.24245 54.4317,0 z m 136.5566,29.750003 c 16.1708,6.31996 31.8845,13.5559 47.084,21.63086 l -0.082,0.14844 c 0.4006,0.21322 0.8051,0.42035 1.205,0.63476 l -48.2597,87.63867 c -11.3773,-6.05075 -23.1237,-11.49785 -35.2032,-16.28516 l 0.043,-0.10937 c -0.4993,-0.1973 -0.9957,-0.40063 -1.4961,-0.5957 z m -327.5449,0 36.709,93.0625 c -0.5004,0.19507 -0.9969,0.3984 -1.4961,0.5957 l 0.043,0.10937 c -12.0795,4.78731 -23.8258,10.23441 -35.2031,16.28516 l -48.2598,-87.63867 c 0.4,-0.21441 0.8044,-0.42154 1.2051,-0.63476 l -0.082,-0.14844 c 15.1995,-8.07496 30.9132,-15.3109 47.084,-21.63086 z m 488.1875,107.36914 c 11.9923,12.46256 23.2703,25.61566 33.7754,39.39062 l -0.2325,0.17188 c 0.077,0.1008 0.1557,0.1999 0.2325,0.30078 l -80.5606,59.34179 c -7.8806,-10.27474 -16.3201,-20.09761 -25.2676,-29.42968 l 0.1856,-0.17774 c -0.1579,-0.16444 -0.3125,-0.33196 -0.4707,-0.49609 z m -648.8301,0 72.3379,69.10156 c -0.1582,0.16413 -0.3128,0.33165 -0.4707,0.49609 l 0.1855,0.17774 c -8.9475,9.33207 -17.3869,19.15494 -25.2675,29.42968 l -80.5606,-59.34179 c 0.077,-0.10088 0.1556,-0.19998 0.2324,-0.30078 l -0.2324,-0.17188 c 10.5051,-13.77496 21.7831,-26.92806 33.7754,-39.39062 z"
       id="path4228"
       inkscape:connector-curvature="0"
       sodipodi:nodetypes="ccccccccccccccccccccccccccccccccccccccccccc" />
    <path
       sodipodi:nodetypes="ccscccccccscccccccccccccccccccccsccccccccsccccccccc"
       inkscape:connector-curvature="0"
       id="path4230"
       d="m -1605.6848,812.782 c -8.4611,3.18464 -17.0595,5.99209 -25.7696,8.41406 -3.2623,16.96973 -4.8169,35.97299 -5.3925,54.95313 -0.082,2.69687 -0.1425,5.39248 -0.1875,8.08203 -0.019,1.13956 -0.024,2.27147 -0.037,3.4082 -0.051,4.20734 -0.066,8.39974 -0.041,12.53907 10e-5,0.022 -2e-4,0.0444 0,0.0664 0.016,2.6186 0.046,5.21872 0.086,7.79492 0.4064,25.97978 1.9252,49.51088 2.414,64.61524 10e-5,0.005 -2e-4,0.0106 0,0.0156 0.097,3.01527 0.1524,5.69275 0.1524,7.98829 l 0,0.004 0,0.004 c 0,1.14616 -0.015,2.19774 -0.047,3.14648 0,0.002 10e-5,0.004 0,0.006 -0.032,0.94845 -0.08,1.79609 -0.1484,2.53516 l 0,0.002 c -0.034,0.36959 -0.073,0.71237 -0.1172,1.02734 -0.01,0.0493 -0.014,0.0869 -0.023,0.13477 -0.1285,0.87281 -0.2956,1.53141 -0.5117,1.93555 -0.076,0.14202 -0.1581,0.25268 -0.2461,0.33398 -0.087,0.0806 -0.1793,0.13335 -0.2793,0.15234 7.1787,-6.7e-4 13.8882,9.4e-4 21.0528,0 0.088,0 0.1707,2e-5 0.2597,0 0.3395,-0.13013 0.6215,-0.43929 0.8594,-0.8789 7.1315,-11.14333 -5.4975,-126.99762 7.9766,-176.2793 z m -210.043,0.60938 c 13.2078,49.60726 0.7202,164.53071 7.8145,175.66406 0.2385,0.44278 0.5183,0.75406 0.8593,0.88476 0.089,2e-5 0.1729,0 0.2617,0 6.7706,5.9e-4 14.1906,-7.1e-4 21.0528,0 -0.1002,-0.019 -0.1933,-0.071 -0.2813,-0.15234 -0.1755,-0.16254 -0.3278,-0.44706 -0.457,-0.84961 -0.065,-0.20127 -0.1237,-0.43237 -0.1777,-0.6914 -0.1012,-0.48661 -0.1801,-1.08277 -0.2461,-1.76563 -0.078,-0.80921 -0.132,-1.75855 -0.166,-2.82812 -0.06,-1.87153 -0.061,-4.11543 -0.01,-6.71485 10e-5,-0.003 0,-0.007 0,-0.01 0.052,-2.66748 0.1547,-5.69374 0.2891,-9.03321 2e-4,-0.005 -2e-4,-0.0126 0,-0.0176 0.6728,-16.71607 2.1615,-41.24597 2.3261,-67.63281 0.02,-2.64145 0.022,-5.30196 0.01,-7.97461 -0.012,-2.66909 -0.039,-5.35073 -0.084,-8.03906 -0.3579,-21.52883 -1.8486,-43.46843 -5.541,-62.79102 -8.6641,-2.30522 -17.2225,-4.99076 -25.6504,-8.04882 z m 90.4355,17.95508 c 1.0526,53.97323 1.8807,106.97311 1.9083,158.63085 l 25.3847,0.006 c 0.089,-51.31358 0.9276,-104.38024 1.9668,-158.51953 -5.2495,0.32189 -10.5065,0.50815 -15.7656,0.5586 -4.5025,-0.12574 -9.0017,-0.35106 -13.4942,-0.67578 z"
       style="fill:#ffffff;fill-opacity:1;stroke:none" />
    <path
       inkscape:connector-curvature="0"
       style="opacity:1;fill:#000000;fill-opacity:1;stroke:none;stroke-width:10;stroke-linecap:round;stroke-linejoin:round;stroke-miterlimit:4;stroke-dasharray:none;stroke-opacity:1"
       d="m -2146.589,403.24167 c -4.5534,16.06778 -8.2304,32.50176 -10.9883,49.24414 l 98.9434,14.65039 c 2.1178,-12.49434 4.8907,-24.76684 8.2968,-36.77539 l -96.2519,-27.11914 z m 866.0351,0 -96.252,27.12109 c 3.406,12.00798 6.1792,24.27973 8.2969,36.77344 l 98.9434,-14.65235 c -2.7578,-16.74172 -6.435,-33.17501 -10.9883,-49.24218 z m -776.0136,192.58789 -98.0351,19.77344 c 3.4849,17.21008 7.9518,34.06369 13.3417,50.50195 l 94.7383,-32.0957 c -4.0409,-12.43641 -7.4043,-25.17665 -10.0449,-38.17969 z m 685.9921,0 c -2.6407,13.00365 -6.0036,25.74467 -10.0448,38.18164 l 94.7383,32.09375 c 5.3899,-16.43826 9.8567,-33.29187 13.3417,-50.50195 l -98.0352,-19.77344 z m -624.8261,137.50781 -81.5761,57.90039 c 10.0226,13.70014 20.7951,26.81691 32.2675,39.28125 l 73.543,-67.8125 c -8.5931,-9.33636 -16.6858,-19.13986 -24.2344,-29.36914 z m 563.6582,0 c -7.5483,10.22878 -15.6397,20.03124 -24.2324,29.36719 l 73.543,67.81445 c 11.4721,-12.464 22.243,-25.58152 32.2655,-39.28125 l -81.5761,-57.90039 z"
       id="path4232" />
    <path
       inkscape:connector-curvature="0"
       id="path4234"
       d="m -1811.8742,472.64971 164.6493,-92.25312"
       style="fill:#ffffff;fill-rule:evenodd;stroke:#ffffff;stroke-width:30;stroke-linecap:butt;stroke-linejoin:miter;stroke-miterlimit:4;stroke-dasharray:none;stroke-opacity:1" />
    <path
       inkscape:transform-center-y="116.62793"
       inkscape:transform-center-x="-39.597054"
       style="fill:#ffffff;fill-rule:evenodd;stroke:#ffffff;stroke-width:30;stroke-linecap:butt;stroke-linejoin:miter;stroke-miterlimit:4;stroke-dasharray:none;stroke-opacity:1"
       d="m -1827.0861,513.48892 53.6499,180.94671"
       id="path4236"
       inkscape:connector-curvature="0" />
    <path
       inkscape:connector-curvature="0"
       id="path4238"
       d="m -1831.6692,489.58203 270.7069,206.22248"
       style="fill:#ffffff;fill-rule:evenodd;stroke:#ffffff;stroke-width:30;stroke-linecap:butt;stroke-linejoin:miter;stroke-miterlimit:4;stroke-dasharray:none;stroke-opacity:1" />
    <path
       style="fill:#ffffff;fill-rule:evenodd;stroke:#ffffff;stroke-width:30.00000191;stroke-linecap:butt;stroke-linejoin:miter;stroke-miterlimit:4;stroke-dasharray:none;stroke-opacity:1"
       d="m -1842.4182,475.92144 340.2886,39.79638"
       id="path4240"
       inkscape:connector-curvature="0" />
    <path
       id="path4242"
       d="m -1725.0615,482.35028 a 106.85282,106.85282 0 0 1 -106.8528,106.85282 106.85282,106.85282 0 0 1 -106.8528,-106.85282 106.85282,106.85282 0 0 1 106.8528,-106.85282 106.85282,106.85282 0 0 1 106.8528,106.85282 z"
       style="color:#000000;clip-rule:nonzero;display:inline;overflow:visible;visibility:visible;opacity:1;isolation:auto;mix-blend-mode:normal;color-interpolation:sRGB;color-interpolation-filters:linearRGB;solid-color:#000000;solid-opacity:1;fill:#000000;fill-opacity:1;fill-rule:nonzero;stroke:#ffffff;stroke-width:30;stroke-linecap:round;stroke-linejoin:miter;stroke-miterlimit:4;stroke-dasharray:none;stroke-dashoffset:0;stroke-opacity:1;color-rendering:auto;image-rendering:auto;shape-rendering:auto;text-rendering:auto;enable-background:accumulate"
       inkscape:connector-curvature="0" />
    <path
       id="path4244"
       d="m -1575.0605,368.35028 a 48.852821,48.852821 0 0 1 -48.8528,48.85282 48.852821,48.852821 0 0 1 -48.8529,-48.85282 48.852821,48.852821 0 0 1 48.8529,-48.85282 48.852821,48.852821 0 0 1 48.8528,48.85282 z"
       style="color:#000000;clip-rule:nonzero;display:inline;overflow:visible;visibility:visible;opacity:1;isolation:auto;mix-blend-mode:normal;color-interpolation:sRGB;color-interpolation-filters:linearRGB;solid-color:#000000;solid-opacity:1;fill:#ffffff;fill-opacity:1;fill-rule:nonzero;stroke:none;stroke-width:30;stroke-linecap:round;stroke-linejoin:miter;stroke-miterlimit:4;stroke-dasharray:none;stroke-dashoffset:0;stroke-opacity:1;color-rendering:auto;image-rendering:auto;shape-rendering:auto;text-rendering:auto;enable-background:accumulate"
       inkscape:connector-curvature="0" />
    <path
       id="path4246"
       d="m -1453.0605,515.17871 a 48.852821,48.852821 0 0 1 -48.8528,48.85282 48.852821,48.852821 0 0 1 -48.8529,-48.85282 48.852821,48.852821 0 0 1 48.8529,-48.85282 48.852821,48.852821 0 0 1 48.8528,48.85282 z"
       style="color:#000000;clip-rule:nonzero;display:inline;overflow:visible;visibility:visible;opacity:1;isolation:auto;mix-blend-mode:normal;color-interpolation:sRGB;color-interpolation-filters:linearRGB;solid-color:#000000;solid-opacity:1;fill:#ffffff;fill-opacity:1;fill-rule:nonzero;stroke:none;stroke-width:30;stroke-linecap:round;stroke-linejoin:miter;stroke-miterlimit:4;stroke-dasharray:none;stroke-dashoffset:0;stroke-opacity:1;color-rendering:auto;image-rendering:auto;shape-rendering:auto;text-rendering:auto;enable-background:accumulate"
       inkscape:connector-curvature="0" />
    <path
       id="path4248"
       d="m -1734.1484,677.23761 a 48.852821,48.852821 0 0 1 -48.8528,48.85282 48.852821,48.852821 0 0 1 -48.8528,-48.85282 48.852821,48.852821 0 0 1 48.8528,-48.85282 48.852821,48.852821 0 0 1 48.8528,48.85282 z"
       style="color:#000000;clip-rule:nonzero;display:inline;overflow:visible;visibility:visible;opacity:1;isolation:auto;mix-blend-mode:normal;color-interpolation:sRGB;color-interpolation-filters:linearRGB;solid-color:#000000;solid-opacity:1;fill:#ffffff;fill-opacity:1;fill-rule:nonzero;stroke:none;stroke-width:30;stroke-linecap:round;stroke-linejoin:miter;stroke-miterlimit:4;stroke-dasharray:none;stroke-dashoffset:0;stroke-opacity:1;color-rendering:auto;image-rendering:auto;shape-rendering:auto;text-rendering:auto;enable-background:accumulate"
       inkscape:connector-curvature="0" />
    <path
       id="path4250"
       d="m -1513.0605,695.52185 a 48.852821,48.852821 0 0 1 -48.8528,48.85282 48.852821,48.852821 0 0 1 -48.8529,-48.85282 48.852821,48.852821 0 0 1 48.8529,-48.85282 48.852821,48.852821 0 0 1 48.8528,48.85282 z"
       style="color:#000000;clip-rule:nonzero;display:inline;overflow:visible;visibility:visible;opacity:1;isolation:auto;mix-blend-mode:normal;color-interpolation:sRGB;color-interpolation-filters:linearRGB;solid-color:#000000;solid-opacity:1;fill:#ffffff;fill-opacity:1;fill-rule:nonzero;stroke:none;stroke-width:30;stroke-linecap:round;stroke-linejoin:miter;stroke-miterlimit:4;stroke-dasharray:none;stroke-dashoffset:0;stroke-opacity:1;color-rendering:auto;image-rendering:auto;shape-rendering:auto;text-rendering:auto;enable-background:accumulate"
       inkscape:connector-curvature="0" />
    <path
       inkscape:connector-curvature="0"
       id="path4380-5"
       d="m -661.35443,224.38907 c 13.3314,0.085 26.5003,1.2891 39.5118,3.5332 1.9828,0.342 3.962,0.7053 5.9375,1.0957 121.42661,19.1059 218.90661,112.7388 246.69531,233.9434 5.295,20.3798 8.1595,41.3486 8.1425,62.6074 0,0.01 2e-4,0.014 0,0.022 -0.012,2.4665 -0.077,4.9118 -0.164,7.3477 0,0.3002 0.012,0.598 0.012,0.8984 -0.054,94.484 -42.2861,183.17 -113.6562,241.30667 -52.29861,46.29877 -29.3943,119.99485 -49.34181,179.99215 -8.5571,2.7404 -17.2251,5.2356 -25.9961,7.4688 -8.8954,2.2648 -17.8965,4.2648 -26.9942,5.9902 -9.0976,1.7254 -18.2921,3.1756 -27.5742,4.3438 -9.282,1.1681 -18.6509,2.0534 -28.0996,2.6464 -9.4486,0.593 -18.9768,0.8946 -28.5742,0.8946 -0.2394,0 -0.4775,-0.01 -0.7168,-0.01 -0.2386,0.001 -0.4762,0.01 -0.7149,0.01 -0.135,0 -0.2692,0 -0.4043,0 -0.135,10e-5 -0.2692,0 -0.4043,0 -0.2387,0 -0.4762,-0.01 -0.7148,-0.01 -0.2393,3e-4 -0.4774,0.01 -0.7168,0.01 -9.5974,0 -19.1256,-0.3016 -28.5742,-0.8946 -9.4487,-0.593 -18.8176,-1.4783 -28.0996,-2.6464 -9.2821,-1.1682 -18.4766,-2.6184 -27.5742,-4.3438 -9.0977,-1.7254 -18.0988,-3.7254 -26.9942,-5.9902 -8.771,-2.2332 -17.439,-4.7284 -25.9961,-7.4688 -19.9475,-59.9973 2.9568,-133.69338 -49.3418,-179.99215 -71.3701,-58.13667 -113.6023,-146.82267 -113.6562,-241.30667 0,-0.3004 0.011,-0.5982 0.012,-0.8984 -0.087,-2.4359 -0.1516,-4.8812 -0.1641,-7.3477 -10e-5,-0.01 0,-0.014 0,-0.022 -0.017,-21.2588 2.8476,-42.2276 8.1426,-62.6074 27.7881,-121.2046 125.2681,-214.8375 246.6947,-233.9434 1.9755,-0.3904 3.9547,-0.7537 5.9375,-1.0957 13.0115,-2.2441 26.1804,-3.4477 39.5117,-3.5332 0.6449,0 1.2919,0.01 1.9375,0.01 0.6456,-0.001 1.2926,-0.01 1.9375,-0.01 z"
       style="fill:#000000;fill-opacity:1" />
    <path
       sodipodi:nodetypes="ccccccccccccccccccccccccccccccccccccccccccc"
       inkscape:connector-curvature="0"
       id="path4382-7"
       d="m -636.07573,76.162571 -6.7793,99.775399 c -7.4189,-0.4743 -12.8982,-0.7207 -20.4356,-0.7246 -7.538,0 -13.018,0.2503 -20.4375,0.7246 l -6.7793,-99.775399 c 19.4627,-1.278 35.081,-1.2425 54.4317,0 z m 136.55661,29.749999 c 16.1708,6.3199 31.8845,13.5559 47.084,21.6308 l -0.082,0.1485 c 0.4006,0.2132 0.8051,0.4203 1.205,0.6347 l -48.2597,87.6387 c -11.37731,-6.0507 -23.12371,-11.4978 -35.20321,-16.2851 l 0.043,-0.1094 c -0.4993,-0.1973 -0.9957,-0.4006 -1.4961,-0.5957 z m -327.54491,0 36.709,93.0625 c -0.5004,0.1951 -0.9969,0.3984 -1.4961,0.5957 l 0.043,0.1094 c -12.0795,4.7873 -23.8258,10.2344 -35.2031,16.2851 l -48.2598,-87.6387 c 0.4,-0.2144 0.8044,-0.4215 1.2051,-0.6347 l -0.082,-0.1485 c 15.1995,-8.0749 30.9132,-15.3109 47.084,-21.6308 z m 488.18751,107.3691 c 11.9923,12.4626 23.2703,25.6157 33.7754,39.3906 l -0.2325,0.1719 c 0.077,0.1008 0.1557,0.1999 0.2325,0.3008 l -80.5606,59.3418 c -7.8806,-10.2747 -16.3201,-20.0976 -25.2676,-29.4297 l 0.1856,-0.1777 c -0.1579,-0.1645 -0.3125,-0.332 -0.4707,-0.4961 z m -648.83011,0 72.3379,69.1016 c -0.1582,0.1641 -0.3128,0.3316 -0.4707,0.4961 l 0.1855,0.1777 c -8.9475,9.3321 -17.3869,19.155 -25.2675,29.4297 l -80.56057,-59.3418 c 0.077,-0.1009 0.1556,-0.2 0.2324,-0.3008 l -0.2324,-0.1719 c 10.5051,-13.7749 21.78307,-26.928 33.77537,-39.3906 z"
       style="opacity:1;fill:#000000;fill-opacity:1;stroke:none;stroke-width:10;stroke-linecap:round;stroke-linejoin:round;stroke-miterlimit:4;stroke-dasharray:none;stroke-opacity:1" />
    <path
       style="fill:#ffffff;fill-opacity:1;stroke:none"
       d="m -555.40493,813.25825 c -8.4611,3.18464 -17.0595,5.99209 -25.7696,8.41406 -3.2623,16.96973 -4.8169,35.97299 -5.3925,54.95308 -0.082,2.6969 -0.1425,5.3925 -0.1875,8.0821 -0.019,1.1395 -0.024,2.2714 -0.037,3.4082 -0.051,4.2073 -0.066,8.3997 -0.041,12.539 10e-5,0.022 -2e-4,0.044 0,0.066 0.016,2.6186 0.046,5.2188 0.086,7.795 0.4064,25.9797 1.9252,49.5108 2.414,64.6152 10e-5,0 -2e-4,0.011 0,0.016 0.097,3.0153 0.1524,5.6928 0.1524,7.9883 l 0,0 0,0 c 0,1.1462 -0.015,2.1977 -0.047,3.1465 0,0 10e-5,0 0,0.01 -0.032,0.9484 -0.08,1.7961 -0.1484,2.5351 l 0,0 c -0.034,0.3696 -0.073,0.7124 -0.1172,1.0274 -0.01,0.049 -0.014,0.087 -0.023,0.1347 -0.1285,0.8729 -0.2956,1.5315 -0.5117,1.9356 -0.076,0.142 -0.1581,0.2527 -0.2461,0.334 -0.087,0.081 -0.1793,0.1333 -0.2793,0.1523 7.1787,-7e-4 13.8882,10e-4 21.0528,0 0.088,0 0.1707,0 0.2597,0 0.3395,-0.1301 0.6215,-0.4393 0.8594,-0.8789 7.1315,-11.1433 -5.4975,-126.9976 7.9766,-176.27928 z m -210.043,0.60938 c 13.2078,49.60726 0.7202,164.53066 7.8145,175.66406 0.2385,0.4428 0.5183,0.7541 0.8593,0.8848 0.089,0 0.1729,0 0.2617,0 6.7706,5e-4 14.1906,-8e-4 21.0528,0 -0.1002,-0.019 -0.1933,-0.071 -0.2813,-0.1524 -0.1755,-0.1625 -0.3278,-0.447 -0.457,-0.8496 -0.065,-0.2013 -0.1237,-0.4324 -0.1777,-0.6914 -0.1012,-0.4866 -0.1801,-1.0828 -0.2461,-1.7656 -0.078,-0.8092 -0.132,-1.7586 -0.166,-2.8281 -0.06,-1.8716 -0.061,-4.1155 -0.01,-6.7149 10e-5,0 0,-0.01 0,-0.01 0.052,-2.6675 0.1547,-5.6937 0.2891,-9.0332 2e-4,-0.01 -2e-4,-0.013 0,-0.018 0.6728,-16.7161 2.1615,-41.246 2.3261,-67.6328 0.02,-2.6415 0.022,-5.302 0.01,-7.9746 -0.012,-2.6691 -0.039,-5.3508 -0.084,-8.0391 -0.3579,-21.52881 -1.8486,-43.46841 -5.541,-62.791 -8.6641,-2.30522 -17.2225,-4.99076 -25.6504,-8.04882 z m 90.4355,17.95508 c 1.0526,53.97318 1.8807,106.97308 1.9083,158.63088 l 25.3847,0.01 c 0.089,-51.3136 0.9276,-104.3803 1.9668,-158.51956 -5.2495,0.32189 -10.5065,0.50815 -15.7656,0.5586 -4.5025,-0.12574 -9.0017,-0.35106 -13.4942,-0.67578 z"
       id="path4384-1"
       inkscape:connector-curvature="0"
       sodipodi:nodetypes="ccscccccccscccccccccccccccccccccsccccccccsccccccccc" />
    <path
       id="path4386-1"
       d="m -1096.3091,403.71797 c -4.5534,16.0677 -8.2304,32.5017 -10.9883,49.2441 l 98.9434,14.6504 c 2.1178,-12.4944 4.8907,-24.7669 8.2968,-36.7754 l -96.2519,-27.1191 z m 866.03508,0 -96.252,27.121 c 3.406,12.008 6.1792,24.2798 8.2969,36.7735 l 98.9434,-14.6524 c -2.7578,-16.7417 -6.435,-33.175 -10.9883,-49.2421 z m -776.01358,192.5878 -98.0351,19.7735 c 3.4849,17.2101 7.9518,34.0637 13.3417,50.5019 l 94.73827,-32.0957 c -4.04087,-12.4364 -7.40427,-25.1766 -10.04487,-38.1797 z m 685.99208,0 c -2.6407,13.0037 -6.0036,25.7447 -10.0448,38.1817 l 94.7383,32.0937 c 5.3899,-16.4382 9.8567,-33.2918 13.3417,-50.5019 l -98.0352,-19.7735 z m -624.82611,137.5079 -81.57607,57.90034 c 10.0226,13.70014 20.7951,26.81691 32.26747,39.28125 l 73.543,-67.81249 c -8.5931,-9.3364 -16.6858,-19.1399 -24.2344,-29.3691 z m 563.65821,0 c -7.5483,10.2287 -15.6397,20.0312 -24.2324,29.3671 l 73.543,67.81449 c 11.4721,-12.464 22.243,-25.58152 32.2655,-39.28125 l -81.5761,-57.90034 z"
       style="opacity:1;fill:#000000;fill-opacity:1;stroke:none;stroke-width:10;stroke-linecap:round;stroke-linejoin:round;stroke-miterlimit:4;stroke-dasharray:none;stroke-opacity:1"
       inkscape:connector-curvature="0" />
    <path
       style="color:#000000;clip-rule:nonzero;display:inline;overflow:visible;visibility:visible;opacity:1;isolation:auto;mix-blend-mode:normal;color-interpolation:sRGB;color-interpolation-filters:linearRGB;solid-color:#000000;solid-opacity:1;fill:#ffffff;fill-opacity:1;fill-rule:nonzero;stroke:none;stroke-width:4;stroke-linecap:round;stroke-linejoin:miter;stroke-miterlimit:4;stroke-dasharray:none;stroke-dashoffset:0;stroke-opacity:1;color-rendering:auto;image-rendering:auto;shape-rendering:auto;text-rendering:auto;enable-background:accumulate"
       d="m -560.85096,326.05577 c -42.08718,0.60671 -81.6189,38.12337 -79.80704,81.46567 -11.42522,2.14739 -31.23267,-3.05364 -45.80143,2.10932 1.60576,-32.92803 -19.59918,-65.31691 -50.29467,-77.28304 -40.91628,-17.78721 -93.27194,5.20258 -107.12029,47.79591 -10.61943,28.53785 -2.42271,60.29166 15.05598,84.23198 15.58074,17.05138 -4.72437,16.67726 -17.31604,15.37372 -24.33959,-2.52318 -51.95102,10.95093 -57.34067,36.3949 -0.6842,8.74643 -1.08585,20.24117 -1.31223,33.11147 3.1749,36.68439 14.67285,72.16177 33.61958,103.73463 l 0,-106.46142 c 1.37318,-9.90968 -3.904,-22.25324 5.32974,-29.45485 12.64961,-5.53036 27.22282,-2.80688 40.80381,-3.80572 12.99684,1.89401 26.16014,-4.89302 31.45284,-17.26927 9.72645,-21.07758 -1.15207,-43.60365 -13.21059,-61.12848 -17.32256,-24.2262 -5.42378,-61.6219 22.62437,-71.39677 30.56439,-13.52439 68.25259,15.07139 63.69542,48.11541 0.89051,13.70494 -9.52189,24.41667 -14.01823,36.71626 -17.48189,30.0299 -11.1649,68.47307 9.00447,95.53253 17.75028,20.77991 -11.0425,16.7742 -24.65464,16.90673 -23.69211,-1.78041 -45.65906,15.5614 -50.30904,38.62445 -0.10999,44.84139 12.25272,84.29054 23.48052,141.28005 35.82596,19.79483 72.40792,30.18686 113.33868,30.20517 39.1189,-0.0435 77.64516,-9.56214 112.28293,-27.74221 l 19.32842,-137.2643 -17.19396,-16.94989 -17.36622,17.5746 -15.84219,108.95119 c -51.68781,20.63764 -105.63496,22.74883 -162.61371,0 -10.50708,-32.01021 -37.26751,-120.39472 1.23505,-121.06496 19.50358,-0.6422 47.05748,3.88259 54.90647,-19.77176 10.80722,-24.76296 -7.86978,-47.37356 -18.61752,-68.24442 -13.42134,-30.92952 14.43582,-69.56255 48.16031,-65.53915 32.56415,2.2044 53.93649,41.99023 37.60843,70.28194 -11.70715,19.07027 -26.72516,42.22178 -15.70035,65.13523 14.78169,-14.92634 31.42377,-28.28426 43.75854,-45.41189 16.34068,-27.56881 14.6984,-63.73702 -2.74128,-90.45048 -13.26987,-19.94672 -14.94082,-49.12253 3.68011,-66.39004 22.70589,-24.71837 67.81432,-13.7543 77.82695,17.92824 10.06383,23.92252 -7.36147,45.5796 -17.93352,65.61633 -10.49083,20.34433 -2.19447,55.63434 24.95613,55.61551 17.00556,3.26356 41.16957,-6.90922 52.08988,10.9558 l 0,128.3784 c 19.94454,-33.51446 31.50013,-71.34989 33.68425,-110.28866 0.37909,-16.81703 -0.0228,-33.74281 -12.43316,-46.36158 -16.29144,-19.73462 -43.39372,-14.86747 -65.91079,-16.73623 -5.24916,-16.592 22.10538,-36.39428 20.94938,-57.20958 8.05902,-41.62883 -21.15393,-86.12951 -63.25395,-93.71942 -6.0036,-1.51037 -12.06825,-2.17802 -18.08074,-2.09132 z"
       id="path4413-6"
       inkscape:connector-curvature="0"
       sodipodi:nodetypes="scccccccccccccccccccccccccccccccccccccccccccccccs" />
    <g
       id="g4176"
       transform="translate(28,0)">
      <path
         id="path4164"
         transform="translate(-69.00585,74.7411)"
         d="m 415.20508,149.64844 c -13.3313,0.0855 -26.50022,1.2891 -39.51172,3.5332 -1.9828,0.342 -3.962,0.7053 -5.9375,1.0957 -121.4266,19.1059 -218.90721,112.73876 -246.69531,233.94336 -5.295,20.3798 -8.15958,41.34862 -8.14258,62.60742 0,0.008 -1e-4,0.0115 0,0.0215 0.0125,2.4665 0.0771,4.91176 0.16406,7.34766 -0.001,0.3002 -0.0117,0.59803 -0.0117,0.89843 0.0539,94.484 42.28615,183.16997 113.65625,241.30664 52.2986,46.29877 29.3943,119.99489 49.3418,179.99219 8.5571,2.7404 17.22509,5.23555 25.99609,7.46875 5.42521,1.38128 10.89471,2.65192 16.39649,3.83399 -0.28106,-38.75186 4.61214,-114.68541 -5.47461,-152.57032 l 0,-0.002 c 8.4279,3.05806 16.98629,5.74361 25.65039,8.04883 3.6924,19.32259 5.18311,41.2622 5.54101,62.79101 0.045,2.6883 0.072,5.36997 0.084,8.03907 0.012,2.6726 0.0102,5.33311 -0.01,7.97461 -0.1646,26.3868 -1.65337,50.91671 -2.32617,67.63281 -2e-4,0.005 2e-4,0.01 0,0.0195 -0.0345,0.8571 -0.0598,1.63221 -0.0898,2.44726 4.90731,0.78401 9.83814,1.49506 14.79687,2.11915 9.282,1.1681 18.65091,2.05348 28.09961,2.64648 6.81439,0.42768 13.67115,0.69765 20.56446,0.81836 -0.15245,-47.2058 -0.91758,-95.48227 -1.875,-144.57617 4.4925,0.32472 8.99164,0.55004 13.49414,0.67578 5.2591,-0.0504 10.51612,-0.2367 15.76562,-0.5586 -0.94378,49.16802 -1.71436,97.43523 -1.91602,144.32422 4.94949,-0.14934 9.87912,-0.37556 14.78711,-0.68359 9.4487,-0.593 18.81761,-1.47838 28.09961,-2.64648 6.82119,-0.85849 13.59353,-1.87284 20.31641,-3.03321 -0.57158,-15.12553 -1.90043,-37.04409 -2.28125,-61.38867 -0.04,-2.5762 -0.0699,-5.17632 -0.0859,-7.79492 -2e-4,-0.022 10e-5,-0.0444 0,-0.0664 -0.025,-4.1393 -0.01,-8.33176 0.041,-12.53906 0.013,-1.1368 0.0181,-2.2687 0.0371,-3.4082 0.045,-2.6896 0.1055,-5.38513 0.1875,-8.08203 0.5756,-18.98009 2.13028,-37.9834 5.39258,-54.95313 8.70951,-2.42181 17.30703,-5.22969 25.76757,-8.41406 5.4e-4,-0.002 10e-4,-0.004 0.002,-0.006 l 0,0.006 -0.002,0 c -10.19052,37.28166 -5.44953,112.61948 -5.62109,151.94336 3.61996,-0.82634 7.22826,-1.6846 10.81445,-2.59766 8.771,-2.2332 17.439,-4.72835 25.9961,-7.46875 19.94751,-59.9973 -2.95682,-133.69342 49.34179,-179.99219 71.3701,-58.13667 113.60225,-146.82264 113.65625,-241.30664 0,-0.3004 -0.0117,-0.59823 -0.0117,-0.89843 0.087,-2.4359 0.15207,-4.88116 0.16407,-7.34766 2e-4,-0.008 0,-0.0115 0,-0.0215 0.017,-21.2588 -2.84758,-42.22762 -8.14258,-62.60742 -27.7887,-121.2046 -125.2687,-214.83746 -246.69531,-233.94336 -1.9755,-0.3904 -3.9547,-0.7537 -5.9375,-1.0957 -13.0115,-2.2441 -26.18032,-3.4482 -39.51172,-3.5332 -0.6449,0 -1.2919,0.009 -1.9375,0.01 -0.6456,0 -1.2926,-0.01 -1.9375,-0.01 z m 106.0957,97.94336 c 6.11315,-0.0882 12.27871,0.5913 18.38281,2.12695 42.80478,7.71697 72.50642,52.96141 64.3125,95.28711 1.17535,21.16374 -26.63584,41.29822 -21.29882,58.16797 22.894,1.90005 50.44951,-3.04935 67.01367,17.01562 12.61819,12.83001 13.02606,30.04011 12.64062,47.13867 -2.22069,39.59061 -13.96963,78.05927 -34.24804,112.13477 l 0,-130.52734 c -11.10312,-18.16408 -35.67071,-7.82047 -52.96094,-11.13867 -27.6051,0.0191 -36.04145,-35.86199 -25.375,-56.54688 10.74903,-20.37214 28.46667,-42.39185 18.23437,-66.71484 -10.18023,-32.2129 -56.04487,-43.36067 -79.13086,-18.22852 -18.93264,17.55658 -17.23225,47.22133 -3.74023,67.50195 17.73162,27.16065 19.40134,63.93259 2.78711,91.96289 -12.54125,17.41435 -29.46305,30.99763 -44.49219,46.17383 -11.20937,-23.29701 4.05976,-46.83705 15.96289,-66.22656 16.6014,-28.7653 -5.12706,-69.21768 -38.23633,-71.45898 -34.28905,-4.09076 -62.61281,35.18943 -48.96679,66.63671 10.92765,21.22024 29.91587,44.20922 18.92773,69.38672 -7.98038,24.05032 -35.99415,19.45057 -55.82422,20.10352 -39.1471,0.68146 -11.93882,90.54575 -1.25586,123.0918 57.93257,23.12965 112.78288,20.98313 165.33594,0 l 16.10742,-110.7754 17.65625,-17.86914 17.48242,17.23438 -19.65234,139.56055 c -35.21761,18.48441 -74.38836,28.16283 -114.16211,28.20703 -41.61595,-0.0186 -78.81065,-10.58474 -115.23633,-30.71094 -11.41576,-57.94351 -23.98487,-98.05249 -23.87304,-143.64453 4.72782,-23.44912 27.06167,-41.0817 51.15039,-39.27149 13.84,-0.13475 43.11578,3.93831 25.06836,-17.18945 -20.507,-27.51243 -26.93079,-66.59826 -9.15625,-97.13086 4.5716,-12.50549 15.15933,-23.39767 14.2539,-37.33203 4.63347,-33.59717 -33.68568,-62.67071 -64.76172,-48.91992 -28.51768,9.93849 -40.61644,47.96006 -23.0039,72.5918 12.26037,17.81819 23.3209,40.72192 13.43164,62.15234 -5.3813,12.58343 -18.76412,19.48236 -31.97852,17.55664 -13.80834,1.01556 -28.62691,-1.75184 -41.48828,3.87109 -9.38831,7.32217 -4.0218,19.87171 -5.41797,29.94727 l 0,108.24414 c -19.2639,-32.10139 -30.9536,-68.17417 -34.18164,-105.47266 0.23017,-13.08574 0.63833,-24.77122 1.33399,-33.66406 5.47987,-25.8699 33.55178,-39.57127 58.29882,-37.00586 12.80245,1.32537 33.44899,1.70596 17.60743,-15.63086 -17.77128,-24.34109 -26.10581,-56.62505 -15.3086,-85.64062 14.08016,-43.30634 67.31284,-66.68263 108.91406,-48.59766 31.20933,12.16644 52.76936,45.09889 51.13672,78.57813 14.81265,-5.24938 34.95189,0.0388 46.56836,-2.14453 -1.84219,-44.06785 38.35086,-82.21321 81.14258,-82.83008 z"
         style="fill:#000000;fill-opacity:1"
         inkscape:connector-curvature="0" />
      <path
         sodipodi:nodetypes="ccccccccccccccccccccccccccccccccccccccccccc"
         inkscape:connector-curvature="0"
         id="path4166"
         d="m 375.35284,76.162571 -6.7793,99.775399 c -7.4189,-0.4743 -12.8982,-0.7207 -20.4356,-0.7246 -7.538,0 -13.018,0.2503 -20.4375,0.7246 l -6.7793,-99.775399 c 19.4627,-1.278 35.081,-1.2425 54.4317,0 z m 136.55661,29.749999 c 16.1708,6.3199 31.8845,13.5559 47.084,21.6308 l -0.082,0.1485 c 0.4006,0.2132 0.8051,0.4203 1.205,0.6347 l -48.2597,87.6387 c -11.37731,-6.0507 -23.12371,-11.4978 -35.20321,-16.2851 l 0.043,-0.1094 c -0.4993,-0.1973 -0.9957,-0.4006 -1.4961,-0.5957 z m -327.54491,0 36.709,93.0625 c -0.5004,0.1951 -0.9969,0.3984 -1.4961,0.5957 l 0.043,0.1094 c -12.0795,4.7873 -23.8258,10.2344 -35.2031,16.2851 l -48.2598,-87.6387 c 0.4,-0.2144 0.8044,-0.4215 1.2051,-0.6347 l -0.082,-0.1485 c 15.1995,-8.0749 30.9132,-15.3109 47.084,-21.6308 z m 488.18751,107.3691 c 11.9923,12.4626 23.2703,25.6157 33.7754,39.3906 l -0.2325,0.1719 c 0.077,0.1008 0.1557,0.1999 0.2325,0.3008 l -80.5606,59.3418 c -7.8806,-10.2747 -16.3201,-20.0976 -25.2676,-29.4297 l 0.1856,-0.1777 c -0.1579,-0.1645 -0.3125,-0.332 -0.4707,-0.4961 z m -648.830109,0 72.3379,69.1016 c -0.1582,0.1641 -0.3128,0.3316 -0.4707,0.4961 l 0.1855,0.1777 c -8.9475,9.3321 -17.3869,19.155 -25.2675,29.4297 l -80.56057,-59.3418 c 0.077,-0.1009 0.1556004,-0.2 0.2324004,-0.3008 l -0.2324004,-0.1719 c 10.50510043,-13.7749 21.78307,-26.928 33.77537,-39.3906 z"
         style="opacity:1;fill:#000000;fill-opacity:1;stroke:none;stroke-width:10;stroke-linecap:round;stroke-linejoin:round;stroke-miterlimit:4;stroke-dasharray:none;stroke-opacity:1" />
      <path
         id="path4170"
         d="m -84.880529,403.71797 c -4.5534,16.0677 -8.2304,32.5017 -10.9883,49.2441 l 98.9434004,14.6504 c 2.1178,-12.4944 4.8907,-24.7669 8.2967996,-36.7754 l -96.2519,-27.1191 z m 866.035079,0 -96.252,27.121 c 3.406,12.008 6.1792,24.2798 8.2969,36.7735 l 98.9434,-14.6524 c -2.7578,-16.7417 -6.435,-33.175 -10.9883,-49.2421 z M 5.1409714,596.30577 -92.894129,616.07927 c 3.4849,17.2101 7.9518,34.0637 13.3417,50.5019 l 94.73827,-32.0957 c -4.04087,-12.4364 -7.4042696,-25.1766 -10.0448696,-38.1797 z m 685.9920786,0 c -2.6407,13.0037 -6.0036,25.7447 -10.0448,38.1817 l 94.7383,32.0937 c 5.3899,-16.4382 9.8567,-33.2918 13.3417,-50.5019 l -98.0352,-19.7735 z m -624.826109,137.5079 -81.57607,57.90034 c 10.0226004,13.70014 20.7951004,26.81691 32.26747,39.28125 l 73.543,-67.81249 c -8.5931,-9.3364 -16.6858,-19.1399 -24.2344,-29.3691 z m 563.658209,0 c -7.5483,10.2287 -15.6397,20.0312 -24.2324,29.3671 l 73.543,67.81449 c 11.4721,-12.464 22.243,-25.58152 32.2655,-39.28125 l -81.5761,-57.90034 z"
         style="opacity:1;fill:#000000;fill-opacity:1;stroke:none;stroke-width:10;stroke-linecap:round;stroke-linejoin:round;stroke-miterlimit:4;stroke-dasharray:none;stroke-opacity:1"
         inkscape:connector-curvature="0" />
    </g>
  </g>
</svg>
